<?xml version="1.0" ?><!DOCTYPE svg  PUBLIC '-//W3C//DTD SVG 1.1//EN'  'http://www.w3.org/Graphics/SVG/1.1/DTD/svg11.dtd'><svg enable-background="new 0 0 200 200" height="200px" id="Layer_1" version="1.1" viewBox="0 0 200 200" width="200px" xml:space="preserve" xmlns="http://www.w3.org/2000/svg" xmlns:xlink="http://www.w3.org/1999/xlink"><g><path d="M135.505,55.02c-0.268-1.174-0.921-2.286-1.949-3.184c-1.027-0.889-2.291-1.43-3.601-1.627l-21.025-4.067   l6.082,4.038l-9.604,30.104L100,57.919L94.59,80.284L84.992,50.18l6.08-4.038l-21.028,4.067c-1.306,0.198-2.568,0.739-3.603,1.627   c-1.029,0.897-1.677,2.009-1.945,3.184l-6.233,27.386l11.76,4.08c3.906,4.06,14.831,7.045,27.94,7.327H100h2.039   c13.105-0.282,24.03-3.268,27.938-7.327l11.767-4.08L135.505,55.02z" fill="#5E889E"/><polygon fill="#5E889E" points="100,49.196 95.151,50.933 100,57.919 104.851,50.933  "/><path d="M117.995,22.233c0-12.429-5.114-22.169-17.996-22.169c-12.884,0-17.999,9.74-17.999,22.169   c-1.342,0.701-2.226,2.352-0.903,5.887c0.666,1.777,1.843,3.264,2.841,4.041C87.608,41.298,94.828,48.358,100,48.358   c5.172,0,12.392-7.06,16.061-16.198c1.003-0.776,2.174-2.263,2.845-4.041C120.226,24.585,119.344,22.934,117.995,22.233z" fill="#5E889E"/><path d="M171.919,121.596c-1.081-4.186-4.972-6.898-9.133-6.638l-4.579-10.09h-56.515v-7.285h-3.385v7.285H41.789   l-4.574,10.09c-4.163-0.261-8.053,2.452-9.135,6.638c-1.226,4.744,1.629,9.587,6.374,10.814c4.75,1.225,9.594-1.631,10.818-6.381   c1.082-4.187-1.016-8.441-4.783-10.229l3.922-7.552h53.896v7.284c-4.092,0.793-7.186,4.39-7.186,8.716   c0,4.903,3.974,8.876,8.878,8.876l0,0l0,0c4.905,0,8.876-3.973,8.876-8.876c0-4.326-3.091-7.923-7.184-8.712v-7.288h53.898   l3.919,7.552c-3.766,1.788-5.86,6.043-4.782,10.229c1.224,4.75,6.066,7.605,10.813,6.381   C170.288,131.183,173.144,126.343,171.919,121.596z M42,125.187c-0.758,2.934-3.763,4.704-6.695,3.947   c-2.936-0.757-4.704-3.762-3.949-6.695c0.757-2.934,3.76-4.704,6.696-3.947C40.982,119.248,42.753,122.253,42,125.187z    M105.496,124.248c0,3.03-2.47,5.492-5.497,5.492l0,0l0,0c-3.032,0-5.497-2.462-5.497-5.492s2.464-5.496,5.497-5.496l0,0l0,0   C103.026,118.752,105.496,121.218,105.496,124.248z M164.695,129.134c-2.934,0.757-5.938-1.014-6.691-3.947   c-0.761-2.93,1.01-5.938,3.947-6.695c2.934-0.757,5.938,1.014,6.691,3.947C169.402,125.376,167.633,128.377,164.695,129.134z" fill="#5E889E"/><g><path d="M51.431,174.106c-0.171-0.781-0.608-1.521-1.294-2.12c-0.685-0.596-1.525-0.952-2.396-1.085l-15.688-3.044    c2.459-1.913,4.908-5.172,6.435-8.973c0.664-0.521,1.449-1.51,1.893-2.69c0.882-2.353,0.291-3.451-0.606-3.919    c0-8.276-3.405-14.765-11.981-14.765c-8.578,0-11.983,6.488-11.983,14.765c-0.896,0.468-1.485,1.566-0.605,3.919    c0.442,1.181,1.229,2.17,1.895,2.69c1.522,3.801,3.971,7.06,6.433,8.973l-15.688,3.044c-0.867,0.133-1.709,0.489-2.4,1.085    c-0.683,0.6-1.115,1.339-1.293,2.12L0,192.345l7.83,2.716c2.602,2.701,9.875,4.689,18.604,4.875h1.36h1.356    c8.728-0.186,16.005-2.174,18.605-4.875l7.83-2.716L51.431,174.106z" fill="#5E889E"/><path d="M195.849,174.106c-0.178-0.781-0.613-1.521-1.295-2.12c-0.689-0.596-1.531-0.952-2.398-1.085    l-15.689-3.044c2.463-1.913,4.911-5.172,6.435-8.973c0.668-0.521,1.449-1.51,1.896-2.69c0.882-2.353,0.289-3.451-0.606-3.919    c0-8.276-3.405-14.765-11.981-14.765c-8.58,0-11.981,6.488-11.981,14.765c-0.896,0.468-1.488,1.566-0.606,3.919    c0.442,1.181,1.228,2.17,1.892,2.69c1.531,3.801,3.979,7.06,6.438,8.973l-15.689,3.044c-0.871,0.133-1.709,0.489-2.398,1.085    c-0.682,0.6-1.12,1.339-1.295,2.12l-4.154,18.238l7.834,2.716c2.598,2.701,9.875,4.689,18.604,4.875h1.356h1.356    c8.726-0.186,16.003-2.174,18.604-4.875l7.831-2.716L195.849,174.106z" fill="#5E889E"/><path d="M123.642,174.106c-0.179-0.781-0.61-1.521-1.296-2.12c-0.688-0.596-1.527-0.952-2.402-1.085l-15.686-3.044    c2.467-1.913,4.911-5.172,6.436-8.973c0.667-0.521,1.448-1.51,1.891-2.69c0.886-2.353,0.297-3.451-0.603-3.919    c0-8.276-3.405-14.765-11.982-14.765c-8.58,0-11.983,6.488-11.983,14.765c-0.896,0.468-1.485,1.566-0.605,3.919    c0.446,1.181,1.231,2.17,1.892,2.69c1.527,3.801,3.976,7.06,6.438,8.973l-15.689,3.044c-0.871,0.133-1.711,0.489-2.4,1.085    c-0.682,0.6-1.115,1.339-1.295,2.12l-4.151,18.238l7.833,2.716c2.6,2.701,9.875,4.689,18.603,4.875H100h1.36    c8.727-0.186,16.004-2.174,18.603-4.875l7.834-2.716L123.642,174.106z" fill="#5E889E"/></g></g></svg>